<?xml version="1.0" encoding="UTF-8"?>
<svg width="400px" height="150px" viewBox="0 0 400 150" version="1.1" xmlns="http://www.w3.org/2000/svg" xmlns:xlink="http://www.w3.org/1999/xlink">
    <!-- Generator: Sketch 64 (93537) - https://sketch.com -->
    <title>text-animate</title>
    <desc>Created with Sketch.</desc>
    <g id="text-animate" stroke="none" stroke-width="1" fill="none" fill-rule="evenodd">
        <path d="M40.263,88.975 C46.425,88.975 51.885,84.958 53.25,79.459 L49.857,78.796 C48.726,82.852 44.709,85.855 40.263,85.855 C34.062,85.855 29.577,80.98 29.577,74.233 C29.577,67.525 34.023,62.65 40.263,62.65 C44.787,62.65 48.804,65.731 49.818,69.982 L53.289,69.514 C51.924,63.742 46.464,59.53 40.263,59.53 C31.995,59.53 26.0278112,65.692 26.0278112,74.233 C25.989,82.774 31.995,88.975 40.263,88.975 Z M66.0485,88.78 C72.2105,88.78 76.6175,84.373 76.6175,78.133 C76.6175,71.932 72.2105,67.525 66.0485,67.525 C59.8475,67.525 55.4795,71.932 55.4795,78.133 C55.4795,84.373 59.8475,88.78 66.0485,88.78 Z M66.0485,85.855 C61.7585,85.855 58.7165,82.618 58.7165,78.133 C58.7165,73.687 61.7585,70.45 66.0485,70.45 C70.2995,70.45 73.3805,73.687 73.3805,78.133 C73.3805,82.618 70.2995,85.855 66.0485,85.855 Z M88.987,88.78 C92.185,88.78 94.72,87.376 96.163,84.958 L96.553,84.958 L96.553,88 L99.79,88 L99.79,59.335 L96.553,59.335 L96.553,71.23 L96.163,71.23 C94.72,68.851 92.107,67.525 88.948,67.525 C83.176,67.525 78.769,71.971 78.769,78.133 C78.769,84.295 83.215,88.78 88.987,88.78 Z M89.338,85.855 C85.126,85.855 82.006,82.54 82.006,78.133 C82.006,73.804 85.087,70.45 89.338,70.45 C93.55,70.45 96.631,73.804 96.631,78.133 C96.631,82.462 93.55,85.855 89.338,85.855 Z M105.9195,64.561 C107.2845,64.561 108.2205,63.586 108.2205,62.221 C108.2205,60.895 107.2845,59.959 105.9195,59.959 C104.5545,59.959 103.5795,60.895 103.5795,62.221 C103.5795,63.586 104.5545,64.561 105.9195,64.561 Z M107.5185,88 L107.5185,68.305 L104.2815,68.305 L104.2815,88 L107.5185,88 Z M115.286,88 L115.286,76.495 C115.286,73.063 118.133,70.489 121.448,70.489 C124.841,70.489 126.83,72.907 126.83,76.222 L126.83,88 L130.067,88 L130.067,76.222 C130.067,71.23 126.869,67.564 121.877,67.564 C119.264,67.564 117.08,68.812 115.676,70.996 L115.286,70.996 L115.286,68.305 L112.049,68.305 L112.049,88 L115.286,88 Z M143.3725,97.75 C149.7295,97.75 153.8635,93.811 153.8635,87.649 L153.8635,68.305 L150.6655,68.305 L150.6655,71.113 L150.2755,71.113 C148.5985,68.929 146.2195,67.564 143.0605,67.564 C137.1325,67.564 132.8425,72.049 132.8425,78.133 C132.8425,84.178 137.1325,88.507 143.0605,88.507 C146.1415,88.507 148.5205,87.181 150.2365,84.997 L150.6265,84.997 L150.6265,87.649 C150.6265,92.056 147.8185,94.825 143.5285,94.825 C140.0185,94.825 137.5225,93.031 136.4695,89.989 L133.2325,91.198 C134.5585,95.293 138.3025,97.75 143.3725,97.75 Z M143.4115,85.66 C139.1605,85.66 136.0795,82.462 136.0795,78.133 C136.0795,73.687 139.1605,70.45 143.4115,70.45 C147.6235,70.45 150.7435,73.687 150.7435,78.133 C150.7435,82.462 147.6625,85.66 143.4115,85.66 Z M167.9555,64.561 C169.3205,64.561 170.2565,63.586 170.2565,62.221 C170.2565,60.895 169.3205,59.959 167.9555,59.959 C166.5905,59.959 165.6155,60.895 165.6155,62.221 C165.6155,63.586 166.5905,64.561 167.9555,64.561 Z M169.5545,88 L169.5545,68.305 L166.3175,68.305 L166.3175,88 L169.5545,88 Z M182.158,88.78 C187.189,88.78 190.192,86.557 190.192,82.696 C190.192,77.977 185.941,77.041 182.236,76.573 C179.311,76.222 176.659,76.027 176.659,73.57 C176.659,71.542 178.609,70.255 181.456,70.255 C184.498,70.255 186.565,71.776 186.604,74.194 L189.763,74.194 C189.763,70.138 186.409,67.525 181.495,67.525 C176.776,67.525 173.578,69.865 173.578,73.687 C173.578,78.172 177.829,79.147 181.495,79.576 C184.459,79.966 187.15,80.161 187.15,82.735 C187.15,84.802 185.239,86.05 182.275,86.05 C178.57,86.05 176.386,84.139 176.347,81.331 L173.227,81.331 C173.227,86.011 176.503,88.78 182.158,88.78 Z M209.588,88.78 C214.619,88.78 217.622,86.557 217.622,82.696 C217.622,77.977 213.371,77.041 209.666,76.573 C206.741,76.222 204.089,76.027 204.089,73.57 C204.089,71.542 206.039,70.255 208.886,70.255 C211.928,70.255 213.995,71.776 214.034,74.194 L217.193,74.194 C217.193,70.138 213.839,67.525 208.925,67.525 C204.206,67.525 201.008,69.865 201.008,73.687 C201.008,78.172 205.259,79.147 208.925,79.576 C211.889,79.966 214.58,80.161 214.58,82.735 C214.58,84.802 212.669,86.05 209.705,86.05 C206,86.05 203.816,84.139 203.777,81.331 L200.657,81.331 C200.657,86.011 203.933,88.78 209.588,88.78 Z M228.7825,88.702 C231.3565,88.702 233.5795,87.454 234.9445,85.309 L235.3345,85.309 L235.3345,88 L238.5715,88 L238.5715,68.305 L235.3345,68.305 L235.3345,79.771 C235.3345,83.242 232.4875,85.777 229.1725,85.777 C225.7795,85.777 223.8295,83.398 223.8295,80.044 L223.8295,68.305 L220.5925,68.305 L220.5925,80.044 C220.5925,85.075 223.7515,88.702 228.7825,88.702 Z M246.027,96.97 L246.027,85.075 L246.378,85.075 C247.821,87.415 250.473,88.78 253.632,88.78 C259.365,88.78 263.772,84.295 263.772,78.133 C263.772,71.971 259.326,67.525 253.593,67.525 C250.356,67.525 247.821,68.929 246.378,71.308 L246.027,71.308 L246.027,68.305 L242.79,68.305 L242.79,96.97 L246.027,96.97 Z M253.242,85.855 C248.991,85.855 245.91,82.462 245.91,78.133 C245.91,73.804 248.991,70.45 253.242,70.45 C257.454,70.45 260.535,73.726 260.535,78.133 C260.535,82.462 257.454,85.855 253.242,85.855 Z M276.5705,88.78 C280.9385,88.78 284.4875,86.752 286.0865,83.398 L283.3955,82.033 C282.1475,84.373 279.5735,85.855 276.6485,85.855 C272.6315,85.855 269.7455,83.203 269.2775,79.225 L286.7105,79.225 C286.7495,78.796 286.7495,78.328 286.7495,77.938 C286.7495,71.893 282.4205,67.525 276.4145,67.525 C270.3305,67.525 265.9625,71.893 265.9625,77.899 C265.9625,84.217 270.4085,88.78 276.5705,88.78 Z M283.3565,76.378 L269.3165,76.378 C269.8625,72.829 272.6315,70.45 276.2585,70.45 C280.0025,70.45 282.7715,72.829 283.3565,76.378 Z M293.191,88 L293.191,77.392 C293.191,73.492 295.258,70.84 298.222,70.84 C298.963,70.84 300.133,70.996 301.147,71.425 L301.147,68.422 C300.562,68.11 299.626,67.915 298.729,67.915 C296.545,67.915 294.361,69.163 293.464,70.957 L293.113,70.957 L293.113,68.305 L289.954,68.305 L289.954,88 L293.191,88 Z M316.487,88 L316.487,70.879 L321.479,70.879 L321.479,68.305 L316.487,68.305 L316.487,64.639 C316.487,62.728 317.657,61.48 319.373,61.48 C320.153,61.48 320.855,61.636 321.518,61.831 L321.518,59.023 C320.621,58.75 319.646,58.555 318.515,58.555 C315.395,58.555 313.25,60.817 313.25,64.327 L313.25,68.305 L310.091,68.305 L310.091,70.879 L313.25,70.879 L313.25,88 L316.487,88 Z M332.0545,88.702 C334.6285,88.702 336.8515,87.454 338.2165,85.309 L338.6065,85.309 L338.6065,88 L341.8435,88 L341.8435,68.305 L338.6065,68.305 L338.6065,79.771 C338.6065,83.242 335.7595,85.777 332.4445,85.777 C329.0515,85.777 327.1015,83.398 327.1015,80.044 L327.1015,68.305 L323.8645,68.305 L323.8645,80.044 C323.8645,85.075 327.0235,88.702 332.0545,88.702 Z M349.299,88 L349.299,76.495 C349.299,73.063 352.146,70.489 355.461,70.489 C358.854,70.489 360.843,72.907 360.843,76.222 L360.843,88 L364.08,88 L364.08,76.222 C364.08,71.23 360.882,67.564 355.89,67.564 C353.277,67.564 351.093,68.812 349.689,70.996 L349.299,70.996 L349.299,68.305 L346.062,68.305 L346.062,88 L349.299,88 Z M370.8335,79.576 L371.6525,67.72 L371.6525,60.505 L368.0645,60.505 L368.0645,67.72 L368.8445,79.576 L370.8335,79.576 Z M369.8585,88.507 C371.1065,88.507 372.0035,87.61 372.0035,86.362 C372.0035,85.114 371.1065,84.217 369.8585,84.217 C368.5715,84.217 367.7135,85.114 367.7135,86.362 C367.7135,87.61 368.5715,88.507 369.8585,88.507 Z" id="Codingissuperfun!" stroke="#000000" fill="#3D3D3D" fill-rule="nonzero"></path>
        <rect id="Rectangle" stroke="#000000" x="12" y="19" width="376" height="112" rx="2"></rect>
    </g>
</svg>